<?xml version="1.0" encoding="utf-8"?><svg version="1.1" id="_x30_1_x5F_home" xmlns="http://www.w3.org/2000/svg" xmlns:xlink="http://www.w3.org/1999/xlink" x="0px" y="0px" width="82.226px" height="28.454px" viewBox="0 0 82.226 28.454" enable-background="new 0 0 82.226 28.454" xml:space="preserve"><g><path fill="#FFFFFF" d="M60.605,8.291c0.639,0.528,1.971,1.639,1.971,3.75c0,2.055-1.166,3.027-2.333,3.943c-0.361,0.362-0.776,0.752-0.776,1.363c0,0.609,0.415,0.942,0.719,1.192l1.004,0.775c1.221,1.029,2.329,1.974,2.329,3.892c0,2.609-2.527,5.247-7.303,5.247c-4.026,0-5.97-1.916-5.97-3.972c0-1.001,0.498-2.414,2.139-3.388c1.721-1.055,4.055-1.192,5.305-1.28c-0.391-0.499-0.834-1.025-0.834-1.887c0-0.471,0.141-0.75,0.278-1.084c-0.308,0.028-0.612,0.057-0.891,0.057c-2.943,0-4.609-2.194-4.609-4.359c0-1.276,0.583-2.694,1.776-3.721c1.585-1.306,3.473-1.528,4.972-1.528h5.722l-1.777,1H60.605z M58.63,20.622c-0.222-0.027-0.359-0.027-0.636-0.027c-0.251,0-1.752,0.056-2.92,0.446c-0.608,0.221-2.386,0.886-2.386,2.858c0,1.972,1.916,3.389,4.889,3.389c2.665,0,4.082-1.278,4.082-2.999C61.66,22.871,60.744,22.125,58.63,20.622z M59.437,15.346c0.639-0.641,0.693-1.527,0.693-2.027c0-2.002-1.193-5.11-3.496-5.11c-0.726,0-1.501,0.359-1.946,0.916c-0.473,0.584-0.61,1.331-0.61,2.055c0,1.86,1.083,4.942,3.472,4.942C58.244,16.122,58.993,15.79,59.437,15.346z"/><path fill="#FFFFFF" d="M43.12,20.178c-4.407,0-6.765-3.438-6.765-6.544c0-3.633,2.967-6.738,7.182-6.738c4.075,0,6.627,3.188,6.627,6.545C50.164,16.711,47.641,20.178,43.12,20.178z M46.585,17.931c0.667-0.887,0.834-1.995,0.834-3.078c0-2.44-1.165-7.097-4.603-7.097c-0.915,0-1.83,0.361-2.495,0.944c-1.082,0.97-1.276,2.19-1.276,3.382c0,2.745,1.359,7.265,4.714,7.265C44.839,19.347,45.949,18.82,46.585,17.931z"/><path fill="#FFFFFF" d="M28.091,20.178c-4.409,0-6.767-3.438-6.767-6.544c0-3.633,2.969-6.738,7.184-6.738c4.074,0,6.626,3.188,6.626,6.545C35.134,16.711,32.612,20.178,28.091,20.178z M31.558,17.931c0.665-0.887,0.832-1.995,0.832-3.078c0-2.44-1.165-7.097-4.604-7.097c-0.914,0-1.831,0.361-2.496,0.944c-1.082,0.97-1.274,2.19-1.274,3.382c0,2.745,1.358,7.265,4.714,7.265C29.812,19.347,30.92,18.82,31.558,17.931z"/><path fill="#FFFFFF" d="M19.207,19.743l-3.986,0.921c-1.618,0.25-3.067,0.474-4.599,0.474c-7.695,0-10.621-5.659-10.621-10.092c0-5.408,4.153-10.423,11.263-10.423c1.505,0,2.955,0.221,4.265,0.583c2.091,0.586,3.065,1.311,3.679,1.73l-2.313,2.203l-0.976,0.221l0.696-1.115c-0.947-0.92-2.676-2.62-5.964-2.62c-4.405,0-7.723,3.347-7.723,8.225c0,5.239,3.791,10.174,9.869,10.174c1.784,0,2.704-0.362,3.541-0.697v-4.488l-4.21,0.224l2.231-1.2h5.909l-0.723,0.696c-0.197,0.167-0.224,0.224-0.279,0.446c-0.029,0.251-0.057,1.06-0.057,1.34V19.743z"/><path fill="#FFFFFF" d="M69.416,18.941c-0.922-0.085-1.115-0.252-1.115-1.339v-0.307V1.824c0.008-0.06,0.012-0.121,0.018-0.179C68.429,0.67,68.708,0.502,69.572,0h-3.986l-2.091,1.003h2.132v0.013l-0.002-0.01v16.289v0.922c0,0.556-0.111,0.639-0.754,1.476h4.935l1.034-0.611C70.365,19.024,69.891,18.996,69.416,18.941z"/><path fill="#FFFFFF" d="M80.759,19.197c-0.304,0.166-0.609,0.361-0.912,0.5c-0.915,0.414-1.855,0.524-2.688,0.524c-0.885,0-2.269-0.057-3.682-1.08c-1.965-1.384-2.823-3.766-2.823-5.841c0-4.29,3.49-6.394,6.34-6.394c0.998,0,2.022,0.249,2.854,0.776c1.382,0.913,1.741,2.102,1.936,2.738l-6.506,2.632l-2.132,0.164c0.691,3.517,3.074,5.565,5.704,5.565c1.412,0,2.436-0.498,3.377-0.968L80.759,19.197z M78.157,10.947c0.525-0.195,0.803-0.36,0.803-0.748c0-1.107-1.247-2.381-2.74-2.381c-1.108,0-3.185,0.858-3.185,3.849c0,0.472,0.055,0.969,0.084,1.469L78.157,10.947z"/></g></svg>