<?xml version="1.0" standalone="no"?><!DOCTYPE svg PUBLIC "-//W3C//DTD SVG 1.1//EN" "http://www.w3.org/Graphics/SVG/1.1/DTD/svg11.dtd"><svg width="100%" height="100%" viewBox="0 0 130 40" version="1.1" xmlns="http://www.w3.org/2000/svg" xmlns:xlink="http://www.w3.org/1999/xlink" xml:space="preserve" style="fill-rule:evenodd;clip-rule:evenodd;stroke-linejoin:round;stroke-miterlimit:1.41421;"><path id="search" d="M35.3065,31.9534l-9.42736,-9.4521l-1.78647,0l-0.287995,-0.285745c1.99347,-2.35347 3.19944,-5.39091 3.19944,-8.71411c0,-7.45413 -6.04565,-13.4998 -13.502,-13.4998c-7.45863,0 -13.502,6.04565 -13.502,13.4998c0,7.45413 6.04341,13.4998 13.502,13.4998c3.32545,0 6.36065,-1.20373 8.71186,-3.19495l0.287994,0.287995l0,1.78197l9.44985,9.42736c0.926985,0.924735 2.42996,0.929235 3.35469,0.00449993c0.922485,-0.931485 0.926985,-2.42771 0,-3.35469l2.15997e-05,-3.08567e-06l-3.05997e-05,-2.68443e-05ZM13.502,22.9512c-5.21992,0 -9.4521,-4.23219 -9.4521,-9.44985c0,-5.21766 4.23219,-9.44985 9.4521,-9.44985c5.21542,0 9.4476,4.23219 9.4476,9.44985c0,5.21766 -4.23219,9.44985 -9.4476,9.44985Z" style="fill:#333;"/><path id="Smilie" d="M84,12.8c-2.0912,0 -3.8216,-1.3448 -4.48,-3.208l8.96,0c-0.66,1.8632 -2.3912,3.208 -4.48,3.208M81.2,7.2008c-0.6624,0 -1.2,-0.5384 -1.2,-1.2016c0,-0.6624 0.5376,-1.1992 1.2,-1.1992c0.6624,0 1.2,0.5368 1.2,1.1992c0,0.6632 -0.5376,1.2016 -1.2,1.2016M86.8,7.2008c-0.6624,0 -1.2,-0.5384 -1.2,-1.2016c0,-0.6624 0.5376,-1.1992 1.2,-1.1992c0.6624,0 1.2,0.5368 1.2,1.1992c0,0.6632 -0.5376,1.2016 -1.2,1.2016M84,0c-4.4216,0 -8,3.5816 -8,8c0,4.4184 3.5784,8.0008 8,8.0008c4.4192,0 8,-3.5824 8,-8.0008c0,-4.4184 -3.5808,-8 -8,-8" style="fill:#fff;"/><g id="coverage"><path id="coverage-region" d="M66,0c-3.865,0 -7,3.134 -7,7c0,5.25 7,13 7,13c0,0 7,-7.75 7,-13c0,-3.866 -3.135,-7 -7,-7ZM66,9.5c-1.38,0 -2.5,-1.119 -2.5,-2.5c0,-1.381 1.12,-2.5 2.5,-2.5c1.381,0 2.5,1.119 2.5,2.5c0,1.381 -1.119,2.5 -2.5,2.5Z" style="fill:#000;"/><path id="coverage-lang" d="M41,12l0,3c0,0.552 0.448,1 1,1l10,0l4,4l0,-14c0,-0.552 -0.448,-1 -1,-1l-3,0l0,7l-11,0ZM51,10l0,-9c0,-0.552 -0.448,-1 -1,-1l-13,0c-0.552,0 -1,0.448 -1,1l0,14l4,-4l10,0c0.552,0 1,-0.448 1,-1ZM43.3486,7.38965c0.491536,0 0.878092,-0.13265 1.15967,-0.397949c0.281576,-0.265299 0.422363,-0.64209 0.422363,-1.13037l0,-0.483398l-0.791016,0.0341797c-0.615234,0.0227865 -1.06364,0.120443 -1.34521,0.292969c-0.281576,0.172526 -0.422363,0.444336 -0.422363,0.81543c0,0.279948 0.0854492,0.494792 0.256348,0.644531c0.170898,0.14974 0.41097,0.224609 0.720215,0.224609l-7e-06,-1.7e-06l-7.10543e-15,0ZM45.1602,8l-0.170898,-0.761719l-0.0390625,0c-0.266927,0.335286 -0.53304,0.562337 -0.79834,0.681152c-0.265299,0.118815 -0.599772,0.178223 -1.00342,0.178223c-0.527344,0 -0.940755,-0.138346 -1.24023,-0.415039c-0.299479,-0.276693 -0.449219,-0.667318 -0.449219,-1.17188c0,-1.08724 0.857747,-1.6569 2.57324,-1.70898l0.908203,-0.0341797l0,-0.317383c0,-0.406901 -0.0878906,-0.707194 -0.263672,-0.900879c-0.175781,-0.193685 -0.457357,-0.290527 -0.844727,-0.290527c-0.283203,0 -0.550944,0.0423177 -0.803223,0.126953c-0.252279,0.0846354 -0.489095,0.179036 -0.710449,0.283203l-0.268555,-0.65918c0.270182,-0.143229 0.564779,-0.255534 0.883789,-0.336914c0.31901,-0.0813802 0.634766,-0.12207 0.947266,-0.12207c0.647786,0 1.12956,0.143229 1.44531,0.429688c0.315755,0.286458 0.473633,0.742188 0.473633,1.36719l0,3.65234l-0.639648,0l2.5e-06,1.7e-06Z" style="fill:#000;"/></g><g id="result"><path id="result-region" d="M66,20.0001c-3.865,0 -7,3.134 -7,7c0,5.25 7,13 7,13c0,0 7,-7.75 7,-13c0,-3.866 -3.135,-7 -7,-7l0,-3.55271e-15ZM66,29.5001c-1.38,0 -2.5,-1.119 -2.5,-2.5c0,-1.381 1.12,-2.5 2.5,-2.5c1.381,0 2.5,1.119 2.5,2.5c0,1.381 -1.119,2.5 -2.5,2.5Z" style="fill:#fff;"/><path id="result-lang" d="M41,32.0001l0,3c0,0.552 0.448,1 1,1l10,0l4,4l0,-14c0,-0.552 -0.448,-1 -1,-1l-3,0l0,7l-11,0ZM51,30.0001l0,-9c0,-0.552 -0.448,-1 -1,-1l-13,0c-0.552,0 -1,0.448 -1,1l0,14l4,-4l10,0c0.552,0 1,-0.448 1,-1l0,-3.55271e-15ZM43.3486,27.3897c0.491536,0 0.878092,-0.13265 1.15967,-0.397949c0.281576,-0.265299 0.422363,-0.64209 0.422363,-1.13037l0,-0.483398l-0.791016,0.0341797c-0.615234,0.0227865 -1.06364,0.120443 -1.34521,0.292969c-0.281576,0.172526 -0.422363,0.444336 -0.422363,0.81543c0,0.279948 0.0854492,0.494792 0.256348,0.644531c0.170898,0.14974 0.41097,0.224609 0.720215,0.224609l-7e-06,-1.7e-06l-7.10543e-15,0ZM45.1602,28.0001l-0.170898,-0.761719l-0.0390625,0c-0.266927,0.335286 -0.53304,0.562337 -0.79834,0.681152c-0.265299,0.118815 -0.599772,0.178223 -1.00342,0.178223c-0.527344,0 -0.940755,-0.138346 -1.24023,-0.415039c-0.299479,-0.276693 -0.449219,-0.667318 -0.449219,-1.17188c0,-1.08724 0.857747,-1.6569 2.57324,-1.70898l0.908203,-0.0341797l0,-0.317383c0,-0.406901 -0.0878906,-0.707194 -0.263672,-0.900879c-0.175781,-0.193685 -0.457357,-0.290527 -0.844727,-0.290527c-0.283203,0 -0.550944,0.0423177 -0.803223,0.126953c-0.252279,0.0846354 -0.489095,0.179036 -0.710449,0.283203l-0.268555,-0.65918c0.270182,-0.143229 0.564779,-0.255534 0.883789,-0.336914c0.31901,-0.0813802 0.634766,-0.12207 0.947266,-0.12207c0.647786,0 1.12956,0.143229 1.44531,0.429688c0.315755,0.286458 0.473633,0.742188 0.473633,1.36719l0,3.65234l-0.639648,0l2.5e-06,1.7e-06Z" style="fill:#fff;"/><path id="result-family" d="M76.6,40.0001l18.6667,0l0,-2.66667l-18.6667,0l0,2.66667ZM82.6,31.7334l6.66667,0l1.2,2.93333l2.8,0l-6.33333,-14.6667l-2,0l-6.33333,14.6667l2.8,0l1.2,-2.93333l-1e-05,0l1.42109e-14,0ZM85.9333,22.6387l2.49467,6.69467l-4.988,0l2.49333,-6.69467Z" style="fill:#fff;"/></g><g id="arrows"><path id="down" d="M97,10.9583l-3.45835,-3.45835l-1.54165,1.54165l5,5l5,-5l-1.54165,-1.54165l-3.45835,3.45835l0,-1.77636e-15Z" style="fill:#000;"/><path id="up" d="M100.458,6.54165l1.54165,-1.54165l-5,-5l-5,5l1.54165,1.54165l3.45835,-3.45835l3.45835,3.45835Z" style="fill:#000;"/></g><path id="close" d="M130,2.83l-2.83,-2.83l-11.17,11.17l-11.17,-11.17l-2.83,2.83l11.17,11.17l-11.17,11.17l2.83,2.83l11.17,-11.17l11.17,11.17l2.83,-2.83l-11.17,-11.17l11.17,-11.17Z" style="fill:#000;fill-rule:nonzero;"/></svg>